Coordinates
version=1
nRows=38
nColumns=12
inDegrees=yes

Units are S.I. units (second, meters, Newtons, ...)
Angles are in degrees

endheader
time	SC_y	SC_z	SC_x	AC_y	AC_z	AC_x	GH_y	GH_z	GH_yy	EL_x	PS_y
       0.0              -23.27          25.88          55.18          63.02         -17.32          17.14          140.6          80.44         -46.83          111.8          51.83
  0.005348              -23.27          25.88          55.19          63.02         -17.32          17.13          140.6          80.43         -46.84          111.8          51.84
    0.0107              -23.26          25.88          55.19          63.02         -17.31          17.13          140.6          80.42         -46.85          111.8          51.85
   0.01604              -23.26          25.88          55.19          63.02         -17.31          17.12          140.7           80.4         -46.86          111.8          51.86
   0.02139              -23.26          25.88          55.19          63.01         -17.31          17.12          140.7          80.38         -46.87          111.7          51.87
   0.02674              -23.26          25.88          55.19          63.01         -17.31          17.11          140.7          80.37         -46.88          111.7          51.88
   0.03209              -23.26          25.88          55.19          63.01         -17.31           17.1          140.7          80.35         -46.89          111.7          51.89
   0.03744              -23.26          25.87          55.19           63.0         -17.31           17.1          140.7          80.33         -46.91          111.7           51.9
   0.04279              -23.26          25.87          55.19           63.0         -17.31          17.09          140.7          80.31         -46.92          111.7          51.91
   0.04813              -23.26          25.87           55.2           63.0         -17.31          17.08          140.7          80.29         -46.93          111.6          51.92
   0.05348              -23.26          25.87           55.2          62.99         -17.31          17.07          140.7          80.26         -46.95          111.6          51.94
   0.05883              -23.26          25.87           55.2          62.99         -17.31          17.07          140.7          80.24         -46.97          111.6          51.95
   0.06418              -23.26          25.87           55.2          62.98         -17.31          17.06          140.7          80.21         -46.98          111.5          51.97
   0.06953              -23.26          25.87           55.2          62.98          -17.3          17.05          140.7          80.18          -47.0          111.5          51.98
   0.07487              -23.26          25.87          55.21          62.97          -17.3          17.04          140.7          80.15         -47.02          111.5           52.0
   0.08022              -23.26          25.87          55.21          62.97          -17.3          17.02          140.7          80.11         -47.04          111.4          52.02
   0.08557              -23.26          25.86          55.21          62.96          -17.3          17.01          140.7          80.07         -47.07          111.4          52.04
   0.09092              -23.26          25.86          55.21          62.95          -17.3           17.0          140.7          80.03          -47.1          111.4          52.07
   0.09627              -23.26          25.86          55.22          62.94          -17.3          16.98          140.8          79.99         -47.12          111.3          52.09
    0.1016              -23.26          25.86          55.22          62.94         -17.29          16.97          140.8          79.94         -47.16          111.3          52.12
     0.107              -23.26          25.86          55.23          62.93         -17.29          16.95          140.8          79.88         -47.19          111.2          52.15
    0.1123              -23.26          25.86          55.23          62.92         -17.29          16.93          140.8          79.82         -47.23          111.1          52.19
    0.1177              -23.26          25.85          55.23           62.9         -17.29           16.9          140.8          79.76         -47.27          111.1          52.23
     0.123              -23.26          25.85          55.24          62.89         -17.28          16.88          140.8          79.68         -47.32          111.0          52.27
    0.1284              -23.26          25.85          55.25          62.88         -17.28          16.85          140.9           79.6         -47.37          110.9          52.32
    0.1337              -23.26          25.84          55.25          62.86         -17.28          16.82          140.9          79.51         -47.43          110.8          52.37
    0.1391              -23.26          25.84          55.26          62.84         -17.27          16.79          140.9          79.41         -47.49          110.7          52.43
    0.1444              -23.26          25.83          55.27          62.82         -17.27          16.75          140.9           79.3         -47.57          110.6          52.49
    0.1497              -23.26          25.83          55.28           62.8         -17.26          16.71          141.0          79.17         -47.65          110.4          52.57
    0.1551              -23.26          25.82          55.29          62.77         -17.26          16.66          141.0          79.02         -47.74          110.3          52.65
    0.1604              -23.26          25.82           55.3          62.74         -17.25           16.6          141.1          78.85         -47.85          110.1          52.75
    0.1658              -23.26          25.81          55.31          62.71         -17.24          16.53          141.1          78.66         -47.97          109.9          52.86
    0.1711              -23.26           25.8          55.33          62.67         -17.23          16.46          141.2          78.44         -48.11          109.7          52.99
    0.1765              -23.26          25.79          55.35          62.63         -17.22          16.37          141.2          78.18         -48.28          109.4          53.14
    0.1818              -23.26          25.78          55.37          62.57         -17.21          16.27          141.3          77.87         -48.47          109.1          53.31
    0.1872              -23.26          25.76           55.4          62.51          -17.2          16.15          141.4          77.52          -48.7          108.7          53.51
    0.1925              -23.26          25.75          55.43          62.44         -17.18          16.01          141.5          77.09         -48.97          108.2          53.76
    0.1979              -23.26          25.73          55.46          62.35         -17.16          15.84          141.7          76.59         -49.29          107.7          54.05
